PathFileType	4	(X/Y/Z)	P:\Projects\LMB_grand_challenge_database\project_only\opensim\experimental_data\SixthCompetition/DM_ngait_og9_new.trc
DataRate	CameraRate	NumFrames	NumMarkers	Units	OrigDataRate	OrigDataStartFrame	OrigNumFrames
120	120	7	68	mm	120	322	369
Frame#	Time	Sternum			Neck			R_Shoulder			L_Shoulder			Xiphoid			Thoracic			R_Asis			L_Asis			R_Psis			L_Psis			Lumbar			R_Elbow			R_ElbowMedial			R_ShoulderAnterior			R_ShoulderPosterior			R_Wrist			R_Radius			R_Ulna			L_Elbow			L_ElbowMedial			L_ShoulderAnterior			L_ShoulderPosterior			L_Wrist			L_Ulna			L_Radius			L_Thigh_Superior			L_Thigh_Inferior			L_Thigh_Lateral			L_Knee_Lateral			L_Knee_Medial			L_Patella			L_Shank_Superior			L_Shank_Inferior			L_Shank_Lateral			L_Ankle_Lateral			L_Ankle_Medial			R_Thigh_Superior			R_Thigh_Inferior			R_Thigh_Lateral			R_Knee_Lateral			R_Knee_Medial			R_Patella			R_Shank_Superior			R_Shank_Inferior			R_Shank_Lateral			R_Ankle_Lateral			RankleMedial			R_Heel			R_Toe			R_Midfoot_Medial			R_Midfoot_Lateral			R_Hindfoot			R_Midfoot_Superior			R_ToeMedial			R_ToeLateral			L_Heel			L_Toe			L_Midfoot_Medial			L_Midfoot_Lateral			L_Hindfoot			L_Midfoot_Superior			L_ToeMedial			L_ToeLateral			Oglobal			Sacral			Xglobal			Yglobal			Zglobal			
		X1	Y1	Z1	X2	Y2	Z2	X3	Y3	Z3	X4	Y4	Z4	X5	Y5	Z5	X6	Y6	Z6	X7	Y7	Z7	X8	Y8	Z8	X9	Y9	Z9	X10	Y10	Z10	X11	Y11	Z11	X12	Y12	Z12	X13	Y13	Z13	X14	Y14	Z14	X15	Y15	Z15	X16	Y16	Z16	X17	Y17	Z17	X18	Y18	Z18	X19	Y19	Z19	X20	Y20	Z20	X21	Y21	Z21	X22	Y22	Z22	X23	Y23	Z23	X24	Y24	Z24	X25	Y25	Z25	X26	Y26	Z26	X27	Y27	Z27	X28	Y28	Z28	X29	Y29	Z29	X30	Y30	Z30	X31	Y31	Z31	X32	Y32	Z32	X33	Y33	Z33	X34	Y34	Z34	X35	Y35	Z35	X36	Y36	Z36	X37	Y37	Z37	X38	Y38	Z38	X39	Y39	Z39	X40	Y40	Z40	X41	Y41	Z41	X42	Y42	Z42	X43	Y43	Z43	X44	Y44	Z44	X45	Y45	Z45	X46	Y46	Z46	X47	Y47	Z47	X48	Y48	Z48	X49	Y49	Z49	X50	Y50	Z50	X51	Y51	Z51	X52	Y52	Z52	X53	Y53	Z53	X54	Y54	Z54	X55	Y55	Z55	X56	Y56	Z56	X57	Y57	Z57	X58	Y58	Z58	X59	Y59	Z59	X60	Y60	Z60	X61	Y61	Z61	X62	Y62	Z62	X63	Y63	Z63	X64	Y64	Z64	X65	Y65	Z65	X66	Y66	Z66	X67	Y67	Z67	X68	Y68	Z68	

323	5.108333	1368.34	1347.92	133.51	1210.06	1429.29	163.337	1333.6	1380.09	313.676	1248.5	1393.18	-22.4605	1385.66	1181.22	139.9	1116.52	1244.46	166.663	1305.77	960.813	296.083	1301.65	947.009	15.1624	1103.03	996.639	188.097	1101.95	991.92	109.998	1103.14	1044.26	148.254	1350.81	1066.74	417.399	-0	0	0	-0	0	0	-0	0	0	1493.77	831.178	366.693	1484.42	845.735	324.137	1451.38	821.754	383.495	1106.66	1083.51	-96.06310000000001	-0	0	0	-0	0	0	-0	0	0	1068.11	816.061	-107.575	1031.06	845.533	-117.456	1081.58	830.913	-64.468	1271.92	788.4589999999999	-28.8099	1395.95	599.481	18.1781	1393.59	699.867	48.5729	-0	0	0	-0	0	0	1463.56	539.4299999999999	81.3147	1416.61	449.637	14.5042	1490.13	187.969	8.124840000000001	1494.26	322.148	78.9434	-0	0	0	-0	0	0	1190.69	783.817	325.511	1139.71	571.3200000000001	279.272	1243.51	677.889	297.341	-0	0	0	-0	0	0	1185.43	462.787	206.276	1039.68	394.821	288.261	961.83	200.097	272.105	1067.06	295.216	202.406	-0	0	0	-0	0	0	836.673	80.50149999999999	220.034	1133.89	48.5461	221.633	1054.02	26.3588	168.624	1043.05	25.317	285.376	932.7670000000001	35.1407	273.25	1004.18	119.671	223.203	1099.22	37.0583	177.793	1091.71	38.2605	269.552	1476.46	49.4821	65.22150000000001	1748.69	160.453	33.7693	1687.95	119.508	104.379	1677.25	98.5869	-7.6651	1583.72	47.4594	4.81641	1601.5	165.973	43.6996	1725.88	127.735	79.0665	1717.63	128.233	-15.9671	-0	0	0	1102.49	994.28	149.047	-200	0	0	-0	0	200	-0	200	0	
324	5.116667	1377.64	1346.53	131.269	1219.18	1427.59	161.411	1343.59	1378.66	311.436	1257.39	1391.46	-24.7795	1395.58	1180.18	138.18	1126.3	1242.38	164.617	1315.44	959.325	295.63	1312.85	945.6369999999999	14.0906	1113.36	995.066	186.395	1112.74	990.0890000000001	108.304	1113.5	1042.58	146.459	1360.45	1065.64	415.205	-0	0	0	-0	0	0	-0	0	0	1502.66	829.394	364.183	1493.01	843.817	321.464	1460.22	820.2089999999999	381.227	1116.28	1081.75	-98.1108	-0	0	0	-0	0	0	-0	0	0	1078.18	814.324	-109.323	1041.2	843.37	-119.449	1091.51	828.932	-66.1289	1285.16	787.088	-29.7431	1407.9	598.215	18.213	1406.53	699.3440000000001	48.4507	-0	0	0	-0	0	0	1475.03	538.011	82.0526	1428.2	447.895	15.053	1495.72	184.952	9.13217	1502.07	318.549	80.2432	-0	0	0	-0	0	0	1199.23	782.559	324.606	1147.04	570.477	278.556	1251.36	676.244	297.129	-0	0	0	-0	0	0	1192.79	460.698	206.518	1045.26	395.191	287.593	964.436	201.651	272.047	1071.63	294.781	202.585	-0	0	0	-0	0	0	837.827	83.60169999999999	220.159	1134.22	47.7068	221.779	1054.37	26.3757	168.687	1043.34	25.1857	285.431	933.246	36.5679	273.379	1005.91	120.274	223.496	1099.55	36.7624	177.841	1092.06	37.8896	269.558	1479.24	49.6158	65.6177	1755.15	149.632	36.5376	1694.27	108.87	103.272	1680.71	92.6122	-9.23494	1584.2	45.2246	3.77035	1608.02	160.511	46.1101	1731.44	117.729	80.9849	1723.1	119.034	-13.5962	-0	0	0	1113.05	992.578	147.35	-200	0	0	-0	0	200	-0	200	0	
325	5.125	1387.09	1345.45	129.069	1228.25	1426	159.264	1352.84	1377.63	308.867	1266.2	1389.97	-26.9617	1405.61	1179.2	136.335	1135.91	1240.61	162.301	1325.15	957.955	294.992	1324.08	944.1559999999999	13.0706	1123.69	993.393	184.514	1123.53	988.283	106.481	1123.89	1040.86	144.528	1370.09	1064.65	413.021	-0	0	0	-0	0	0	-0	0	0	1511.12	827.826	361.62	1501.43	842.116	319.098	1469.01	818.798	379.07	1125.7	1079.91	-100.396	-0	0	0	-0	0	0	-0	0	0	1088.66	812.015	-110.997	1051.49	841.327	-121.196	1102.03	827.091	-68.2491	1299.04	785.54	-29.912	1418.23	596.397	19.759	1419.73	698.27	48.0803	-0	0	0	-0	0	0	1485.55	535.283	82.9273	1438.98	445.879	15.6879	1502.03	181.957	10.1746	1510.13	315.604	81.6502	-0	0	0	-0	0	0	1207.98	781.446	323.746	1154.85	569.787	277.611	1259.42	674.702	296.935	-0	0	0	-0	0	0	1200.35	458.638	206.708	1051.12	395.755	287.036	967.658	203.397	271.748	1076.6	294.333	202.822	-0	0	0	-0	0	0	839.27	87.0913	220.313	1134.63	47.0679	221.877	1054.83	26.4384	168.609	1043.77	24.9996	285.349	933.698	38.2306	273.345	1007.9	120.922	223.77	1099.92	36.4388	177.825	1092.35	37.3693	269.765	1482.26	50.0063	65.7837	1761.85	138.688	39.6255	1700.26	98.55710000000001	101.66	1684.17	86.9425	-11.089	1584.92	43.2465	2.49404	1614.62	155.233	48.0011	1735.35	107.328	83.7864	1728.83	109.482	-10.8377	-0	0	0	1123.61	990.838	145.497	-200	0	0	-0	0	200	-0	200	0	
326	5.133333	1396.47	1344.59	126.649	1237.27	1424.49	157.056	1362.01	1376.71	306.354	1275	1388.35	-29.1973	1415.78	1178.57	134.404	1145.67	1238.71	160.194	1335.05	956.528	294.031	1335.6	943.058	12.0633	1134.2	991.715	182.376	1134.48	986.495	104.576	1134.44	1039.14	142.522	1379.62	1063.77	410.724	-0	0	0	-0	0	0	-0	0	0	1519.69	826.129	359.216	1509.55	840.302	316.573	1477.63	817.373	377.001	1135.42	1077.9	-102.383	-0	0	0	-0	0	0	-0	0	0	1099.49	809.77	-112.993	1062.19	839.125	-123.131	1113.18	824.846	-70.1264	1312.84	784.191	-29.6766	1429.16	594.6900000000001	21.5791	1433.4	696.999	47.821	-0	0	0	-0	0	0	1495.94	532.3099999999999	84.2176	1448.84	443.761	15.7654	1508.91	179.846	10.2371	1518.11	312.969	82.4588	-0	0	0	-0	0	0	1216.96	780.23	322.544	1162.89	568.71	276.95	1267.99	672.989	296.672	-0	0	0	-0	0	0	1208.28	456.225	206.639	1057.45	396.436	286.351	970.8440000000001	205.32	271.621	1081.02	294.736	202.809	-0	0	0	-0	0	0	840.8869999999999	91.0744	220.495	1135.2	46.4689	221.968	1055.2	26.3375	168.581	1044.13	24.7545	285.318	934.537	40.2213	273.377	1010.11	121.55	224.04	1100.44	35.9009	177.898	1092.54	36.6826	270.204	1485.09	50.6454	65.3886	1767.88	127.929	43.4212	1705.53	88.2325	99.4567	1687.29	81.51600000000001	-13.3638	1585.44	41.517	0.656733	1621.03	150.056	49.3723	1740.54	98.3553	86.9071	1734.52	99.9044	-7.37145	-0	0	0	1134.34	989.105	143.476	-200	0	0	-0	0	200	-0	200	0	
327	5.141667	1406.04	1343.93	124.282	1246.28	1422.95	154.622	1371.13	1375.89	303.717	1283.88	1387	-31.7238	1426.1	1177.93	132.419	1155.39	1237	158.07	1345.41	955.092	292.811	1347.07	941.958	11.1212	1144.96	990.289	180.43	1145.42	984.937	102.707	1145.29	1037.64	140.759	1389.12	1063.1	408.468	-0	0	0	-0	0	0	-0	0	0	1527.89	824.76	356.575	1517.4	838.49	314.025	1485.97	816.101	374.998	1145.1	1075.98	-104.362	-0	0	0	-0	0	0	-0	0	0	1110.54	807.519	-114.834	1073.2	836.693	-124.906	1124.3	822.533	-72.0787	1326.58	782.621	-28.7103	1439.78	592.799	23.5724	1447.34	695.239	47.1339	-0	0	0	-0	0	0	1505.88	529.395	85.6049	1458.2	441.924	15.2569	1515.89	177.705	10.0446	1526	310.52	82.7513	-0	0	0	-0	0	0	1226.28	779.102	321.369	1171.74	567.826	275.87	1276.81	671.571	296.291	-0	0	0	-0	0	0	1217.59	454.634	206.977	1064.11	397.274	285.752	974.487	207.499	271.447	1086.52	294.78	202.938	-0	0	0	-0	0	0	842.8099999999999	95.4712	220.706	1136.08	46.0726	221.384	1055.93	26.8576	168.865	1044.6	24.9162	285.572	935.419	42.5888	273.493	1012.95	122.71	224.72	1100.94	35.5301	177.851	1093.02	36.8055	270.515	1487.48	51.609	64.5232	1773.52	117.467	47.1779	1708.63	79.9649	102.685	1692.33	73.1003	-10.4219	1588.28	36.6741	1.41439	1627.19	144.495	50.5383	1743.99	88.285	90.15689999999999	1739.54	89.94750000000001	-4.19048	-0	0	0	1145.19	987.6130000000001	141.569	-200	0	0	-0	0	200	-0	200	0	
328	5.15	1415.54	1343.38	121.868	1255.39	1421.63	152.162	1380.57	1375.28	301.542	1292.83	1385.56	-33.8613	1436.46	1177.51	130.367	1165.59	1235.39	155.969	1355.75	953.923	291.511	1358.5	941.123	10.1304	1155.67	988.951	178.433	1156.3	983.553	100.762	1156.06	1036.27	138.953	1398.53	1062.61	406.089	-0	0	0	-0	0	0	-0	0	0	1535.96	823.402	354.233	1525.28	836.8579999999999	311.902	1494.31	815.077	373.183	1155.07	1073.97	-106.288	-0	0	0	-0	0	0	-0	0	0	1122.01	805.149	-117.114	1084.55	834.308	-126.742	1136.1	820.35	-74.5561	1339.79	781.967	-27.7876	1450.03	590.98	25.8694	1461.12	692.75	46.2463	-0	0	0	-0	0	0	1516.12	527.206	87.51949999999999	1467.36	440.793	14.6033	1522.85	175.584	9.282120000000001	1533.97	308.423	82.9756	-0	0	0	-0	0	0	1235.89	777.875	320.083	1181.02	566.596	275.113	1286.15	670.067	295.778	-0	0	0	-0	0	0	1227.24	453.139	207.76	1071.42	398.136	285.021	978.198	210.223	271.991	1092.55	294.644	203.189	-0	0	0	-0	0	0	845.018	100.445	220.95	1136.45	44.7883	222.104	1056.57	27.1028	169.139	1045.02	24.9675	285.821	936.298	45.2191	273.658	1015.78	123.714	225.313	1101.31	35.1828	177.938	1093.77	36.8974	270.435	1490	52.7855	63.7566	1778.34	106.267	49.8119	1711.54	72.13890000000001	105.128	1696.71	64.73869999999999	-8.147790000000001	1592.47	34.0833	2.4866	1633.45	139.32	51.0631	1747.16	78.9106	92.6516	1744.19	80.3124	-1.59786	-0	0	0	1155.98	986.252	139.598	-200	0	0	-0	0	200	-0	200	0	
329	5.158333	1425.15	1343.06	119.369	1264.55	1420.51	149.54	1389.79	1374.98	299.196	1301.89	1384.16	-36.2867	1446.86	1177.19	128.266	1175.58	1233.99	153.963	1366.27	952.724	289.758	1369.72	940.614	9.025880000000001	1166.35	987.832	176.392	1167.04	982.4450000000001	98.84399999999999	1166.82	1035.14	137.232	1408.02	1062.32	403.659	-0	0	0	-0	0	0	-0	0	0	1543.82	822.3099999999999	351.903	1532.79	835.539	309.667	1502.29	814.227	371.366	1165.22	1072.07	-108.1	-0	0	0	-0	0	0	-0	0	0	1133.9	802.973	-119.27	1096.17	832.035	-128.687	1148.16	818.091	-76.6383	1352.56	782.159	-26.7252	1459.56	589.162	28.4052	1474.09	689.377	44.7008	-0	0	0	-0	0	0	1526.46	525.5650000000001	88.72669999999999	1477.44	440.131	13.6064	1529.78	173.899	8.261509999999999	1542.01	306.481	82.9188	-0	0	0	-0	0	0	1245.83	776.694	318.563	1190.55	565.821	273.732	1295.94	668.775	295.142	-0	0	0	-0	0	0	1237.46	451.254	208.143	1079.3	399.007	284.551	982.671	212.921	271.971	1099.13	294.474	203.406	-0	0	0	-0	0	0	847.702	105.94	221.33	1136.89	43.8017	222.695	1057.35	27.4358	169.347	1045.66	25.0854	286.01	937.361	48.2033	273.817	1019	124.812	225.916	1101.73	34.8395	178.035	1094.3	35.9813	270.215	1492.09	53.9188	63.0109	1782.47	96.4546	51.118	1714.2	64.2236	104.604	1699.16	58.1817	-8.725339999999999	1594.12	32.0113	1.78657	1639.05	134.911	50.9479	1749.99	70.4918	93.8295	1747.53	71.3338	-0.593963	-0	0	0	1166.69	985.139	137.618	-200	0	0	-0	0	200	-0	200	0	
